<?xml version="1.0" standalone="no"?>
<!DOCTYPE svg PUBLIC "-//W3C//DTD SVG 20010904//EN"
 "http://www.w3.org/TR/2001/REC-SVG-20010904/DTD/svg10.dtd">
<svg version="1.0" xmlns="http://www.w3.org/2000/svg"
 width="1500.000000pt" height="1500.000000pt" viewBox="0 0 1500.000000 1500.000000"
 preserveAspectRatio="xMidYMid meet">
<metadata>
Created by potrace 1.14, written by Peter Selinger 2001-2017
</metadata>
<g transform="translate(0.000000,1500.000000) scale(0.100000,-0.100000)"
fill="#000000" stroke="none">
<path d="M933 14445 c0 -8 5 -15 11 -15 6 0 5 -5 -2 -12 -8 -8 -8 -15 -1 -24
7 -9 7 -19 -1 -35 -7 -12 -8 -19 -2 -15 11 7 10 -19 -1 -30 -10 -10 -9 -26 1
-20 10 6 9 -50 -1 -60 -10 -10 -9 -26 1 -20 10 6 9 -50 -1 -60 -10 -10 -9 -26
1 -20 10 6 9 -50 -1 -60 -11 -12 -8 -26 4 -18 8 5 8 1 0 -13 -7 -14 -7 -23 0
-30 8 -8 7 -17 0 -32 -8 -15 -9 -27 -1 -40 7 -14 7 -22 0 -26 -8 -5 -8 -11 0
-20 8 -10 8 -19 0 -34 -7 -15 -8 -27 0 -40 7 -14 7 -22 0 -26 -8 -5 -8 -11 0
-20 8 -10 8 -19 0 -34 -7 -15 -8 -27 0 -40 7 -14 7 -22 0 -26 -8 -5 -8 -11 0
-20 8 -10 8 -19 0 -34 -7 -15 -8 -27 0 -40 7 -14 7 -22 0 -26 -8 -5 -8 -11 0
-20 8 -10 8 -19 0 -34 -7 -15 -8 -27 0 -40 7 -14 7 -22 0 -26 -6 -4 -7 -12 -3
-18 11 -17 11 -57 1 -63 -4 -3 -8 -10 -8 -15 0 -6 4 -8 8 -5 10 6 9 -50 -1
-60 -10 -10 -9 -26 1 -20 10 6 9 -50 -1 -60 -10 -10 -9 -26 1 -20 10 6 9 -50
-1 -60 -10 -11 -9 -26 2 -19 10 6 7 -27 -4 -45 -3 -5 -1 -18 5 -29 7 -14 7
-22 0 -26 -8 -5 -7 -11 0 -20 7 -8 8 -20 4 -26 -10 -17 -14 -80 -4 -74 10 6 8
-15 -3 -32 -5 -8 -3 -13 4 -13 8 0 9 -4 0 -13 -7 -10 -7 -17 0 -24 7 -7 8 -17
3 -24 -12 -19 -13 -51 -3 -71 6 -10 5 -19 -1 -23 -8 -5 -7 -11 0 -20 7 -8 8
-20 4 -26 -10 -17 -14 -80 -4 -74 10 6 8 -15 -3 -32 -5 -8 -3 -13 4 -13 8 0 9
-4 0 -13 -7 -10 -7 -17 0 -24 8 -8 8 -17 0 -30 -7 -14 -7 -23 0 -30 8 -8 7
-17 0 -32 -8 -15 -9 -27 -1 -40 7 -14 7 -22 0 -26 -8 -5 -8 -11 0 -20 8 -10 8
-19 0 -34 -7 -15 -8 -27 0 -40 7 -14 7 -22 0 -26 -8 -5 -8 -11 0 -20 8 -10 8
-19 0 -34 -7 -15 -8 -27 0 -40 7 -14 7 -22 0 -26 -8 -5 -8 -11 0 -20 8 -10 8
-19 0 -34 -7 -15 -8 -27 0 -40 7 -14 7 -22 0 -26 -8 -5 -8 -11 0 -20 8 -10 8
-19 0 -34 -7 -15 -8 -27 0 -40 7 -14 7 -22 0 -26 -8 -5 -8 -11 0 -20 8 -10 8
-15 0 -20 -8 -5 -8 -11 0 -20 8 -10 8 -19 0 -34 -7 -15 -8 -27 0 -40 7 -14 7
-22 0 -26 -8 -5 -8 -11 0 -20 8 -10 8 -19 0 -34 -7 -15 -8 -27 0 -40 7 -14 7
-22 0 -26 -8 -5 -8 -11 0 -20 8 -10 8 -19 0 -34 -7 -15 -8 -27 0 -40 7 -14 7
-22 0 -26 -8 -5 -8 -11 0 -20 8 -10 8 -19 0 -34 -7 -15 -8 -27 0 -40 7 -14 7
-22 0 -26 -8 -5 -8 -11 0 -20 8 -10 8 -19 0 -34 -7 -15 -8 -27 0 -40 7 -14 7
-22 0 -26 -8 -5 -8 -11 0 -20 8 -10 8 -19 0 -34 -7 -15 -8 -27 0 -40 7 -14 7
-22 0 -26 -8 -5 -7 -11 0 -20 7 -8 8 -20 4 -26 -10 -17 -14 -80 -4 -74 10 6 8
-15 -3 -32 -5 -8 -3 -13 4 -13 8 0 9 -4 0 -13 -7 -10 -7 -17 0 -24 7 -7 8 -17
3 -24 -12 -19 -13 -51 -3 -71 6 -10 5 -19 -1 -23 -8 -5 -7 -11 0 -20 7 -8 8
-20 4 -26 -10 -17 -14 -80 -4 -74 10 6 8 -15 -3 -32 -5 -8 -3 -13 4 -13 8 0 9
-4 0 -13 -7 -10 -7 -17 0 -24 8 -8 7 -17 -1 -33 -7 -12 -7 -20 -2 -16 11 7 10
-19 -1 -30 -10 -10 -9 -26 1 -20 10 6 9 -50 -1 -60 -10 -10 -9 -26 1 -20 10 6
9 -50 -1 -60 -10 -10 -9 -26 1 -20 10 6 9 -50 -1 -60 -11 -12 -8 -26 4 -18 8
5 8 1 0 -13 -7 -14 -7 -23 0 -30 8 -8 7 -17 0 -32 -8 -15 -9 -27 -1 -40 7 -14
7 -22 0 -26 -8 -5 -8 -11 0 -20 8 -10 8 -19 0 -34 -7 -15 -8 -27 0 -40 7 -14
7 -22 0 -26 -8 -5 -8 -11 0 -20 8 -10 8 -19 0 -34 -7 -15 -8 -27 0 -40 7 -14
7 -22 0 -26 -8 -5 -8 -11 0 -20 8 -10 8 -19 0 -34 -7 -15 -8 -27 0 -40 7 -14
7 -22 0 -26 -8 -5 -8 -11 0 -20 8 -10 8 -19 0 -34 -7 -15 -8 -27 0 -40 7 -14
7 -22 0 -26 -6 -4 -7 -12 -3 -18 11 -17 11 -57 1 -63 -4 -3 -8 -10 -8 -15 0
-6 4 -8 8 -5 10 6 9 -50 -1 -60 -10 -10 -9 -26 1 -20 10 6 9 -50 -1 -60 -10
-10 -9 -26 1 -20 10 6 9 -50 -1 -60 -10 -11 -9 -26 2 -19 10 6 7 -27 -4 -45
-3 -5 -1 -18 5 -29 7 -14 7 -22 0 -26 -8 -5 -7 -11 0 -20 7 -8 8 -20 4 -26
-10 -17 -14 -80 -4 -74 10 6 8 -15 -3 -32 -5 -8 -3 -13 4 -13 8 0 9 -4 0 -13
-7 -10 -7 -17 0 -24 7 -7 8 -17 3 -24 -12 -19 -13 -51 -3 -71 6 -10 5 -19 -1
-23 -8 -5 -7 -11 0 -20 7 -8 8 -20 4 -26 -10 -17 -14 -80 -4 -74 10 6 8 -15
-3 -32 -5 -8 -3 -13 4 -13 8 0 9 -4 0 -13 -7 -10 -7 -17 0 -24 8 -8 8 -17 0
-30 -7 -14 -7 -23 0 -30 8 -8 7 -17 0 -32 -8 -15 -9 -27 -1 -40 7 -14 7 -22 0
-26 -8 -5 -8 -11 0 -20 8 -10 8 -19 0 -34 -7 -15 -8 -27 0 -40 7 -14 7 -22 0
-26 -8 -5 -8 -11 0 -20 8 -10 8 -19 0 -34 -7 -15 -8 -27 0 -40 7 -14 7 -22 0
-26 -8 -5 -8 -11 0 -20 8 -10 8 -19 0 -34 -7 -15 -8 -27 0 -40 7 -14 7 -22 0
-26 -8 -5 -8 -11 0 -20 8 -10 8 -19 0 -34 -7 -15 -8 -27 0 -40 7 -14 7 -22 0
-26 -8 -5 -8 -11 0 -20 8 -10 8 -15 0 -20 -8 -5 -8 -11 0 -20 8 -10 8 -19 0
-34 -7 -15 -8 -27 0 -40 7 -14 7 -22 0 -26 -8 -5 -8 -11 0 -20 8 -10 8 -19 0
-34 -7 -15 -8 -27 0 -40 7 -14 7 -22 0 -26 -8 -5 -8 -11 0 -20 8 -10 8 -19 0
-34 -7 -15 -8 -27 0 -40 7 -14 7 -22 0 -26 -8 -5 -8 -11 0 -20 8 -10 8 -19 0
-34 -7 -15 -8 -27 0 -40 7 -14 7 -22 0 -26 -8 -5 -8 -11 0 -20 8 -10 8 -19 0
-34 -7 -15 -8 -27 0 -40 7 -14 7 -22 0 -26 -8 -5 -8 -11 0 -20 8 -10 8 -19 0
-34 -7 -15 -8 -27 0 -40 7 -14 7 -22 0 -26 -8 -5 -7 -11 0 -20 7 -8 8 -20 4
-26 -10 -17 -14 -80 -4 -74 10 6 8 -15 -3 -32 -5 -8 -3 -13 4 -13 8 0 9 -4 0
-13 -7 -10 -7 -17 0 -24 7 -7 8 -17 3 -24 -12 -19 -13 -51 -3 -71 6 -10 5 -19
-1 -23 -8 -5 -7 -11 0 -20 7 -8 8 -20 4 -26 -10 -17 -14 -80 -4 -74 10 6 8
-15 -3 -32 -5 -8 -3 -13 4 -13 8 0 9 -4 0 -13 -7 -10 -7 -17 0 -24 8 -8 7 -17
-1 -33 -7 -12 -7 -20 -2 -16 11 7 10 -19 -1 -30 -10 -10 -9 -26 1 -20 10 6 9
-50 -1 -60 -10 -10 -9 -26 1 -20 10 6 9 -50 -1 -60 -10 -10 -9 -26 1 -20 10 6
9 -50 -1 -60 -11 -12 -8 -26 4 -18 8 5 8 1 0 -13 -7 -14 -7 -23 1 -31 8 -8 8
-15 -1 -26 -9 -11 -9 -15 1 -18 10 -4 10 -8 -1 -21 -10 -13 -10 -17 -1 -17 10
0 10 -3 0 -15 -9 -10 -9 -15 -1 -15 6 0 11 -5 11 -11 0 -5 -4 -8 -8 -5 -4 2
-8 -4 -9 -14 -1 -11 3 -22 8 -26 6 -3 5 -12 -3 -22 -10 -12 -10 -14 -1 -8 17
10 17 -16 0 -33 -8 -9 -8 -12 0 -7 8 4 12 -10 13 -49 3 -131 4 -145 13 -145 5
0 4 -7 -3 -15 -7 -8 -9 -15 -4 -15 5 0 9 -28 9 -63 -1 -34 2 -66 4 -72 3 -5 6
-21 7 -35 1 -14 5 -50 9 -80 3 -30 7 -72 8 -92 1 -21 4 -38 7 -38 3 0 6 -19 8
-43 3 -51 6 -69 13 -82 2 -5 4 -25 4 -42 0 -18 2 -33 5 -33 3 0 5 -15 4 -32 0
-18 2 -37 5 -43 8 -14 12 -35 15 -76 1 -19 5 -40 9 -45 3 -6 8 -28 11 -50 6
-42 13 -79 16 -79 1 0 3 -11 5 -25 9 -67 18 -110 24 -110 3 0 6 -10 7 -22 0
-13 4 -36 7 -53 4 -16 9 -43 12 -59 4 -16 8 -33 10 -37 5 -7 17 -76 18 -96 0
-7 4 -13 10 -13 5 0 7 -6 4 -12 -2 -7 0 -24 5 -38 6 -14 12 -38 15 -55 3 -16
9 -38 15 -48 5 -10 10 -31 10 -48 1 -16 4 -29 8 -29 4 0 7 -6 8 -12 1 -16 6
-41 23 -98 7 -25 14 -49 15 -55 2 -5 16 -57 33 -114 17 -57 28 -108 24 -114
-3 -6 -1 -7 5 -3 7 4 12 4 13 -1 3 -30 57 -192 70 -209 5 -6 6 -14 2 -17 -3
-4 0 -7 7 -7 7 0 11 -3 7 -6 -3 -4 3 -24 13 -45 11 -21 20 -45 20 -54 0 -8 5
-15 11 -15 6 0 9 -6 6 -14 -3 -8 -3 -16 1 -18 4 -2 18 -28 32 -58 14 -30 27
-57 30 -60 4 -3 12 -21 20 -40 7 -19 17 -40 22 -46 8 -11 70 -126 92 -171 6
-13 15 -23 19 -23 5 0 5 -5 2 -10 -3 -6 1 -13 9 -16 9 -3 16 -12 16 -19 0 -6
14 -31 30 -53 17 -23 27 -42 23 -42 -5 0 -3 -4 2 -8 6 -4 25 -29 43 -57 18
-27 39 -59 48 -70 44 -57 104 -146 104 -155 0 -5 4 -10 9 -10 5 0 26 -25 46
-55 21 -30 41 -55 44 -55 3 0 17 -17 31 -37 14 -20 34 -46 45 -58 11 -12 39
-44 62 -72 24 -28 56 -65 73 -83 16 -18 30 -36 30 -42 0 -5 5 -6 10 -3 5 3 10
1 10 -5 0 -6 15 -26 33 -44 17 -18 55 -57 83 -87 67 -70 223 -219 303 -289 35
-30 73 -64 85 -75 13 -11 40 -33 61 -50 21 -16 44 -36 51 -43 7 -6 17 -12 23
-12 6 0 11 -4 11 -9 0 -4 19 -21 42 -37 24 -16 51 -37 61 -48 9 -10 17 -15 17
-10 0 5 4 4 8 -2 4 -5 36 -30 72 -55 36 -24 67 -47 68 -51 2 -5 9 -8 16 -8 7
0 21 -8 32 -18 10 -9 53 -37 94 -62 41 -25 77 -48 78 -52 2 -5 7 -6 12 -3 4 3
13 -2 20 -10 7 -8 18 -15 24 -15 7 0 23 -10 36 -22 14 -13 25 -21 25 -19 0 10
45 -11 45 -21 0 -6 3 -8 7 -5 3 4 15 0 25 -10 10 -9 18 -13 18 -9 0 4 13 -2
29 -13 15 -11 30 -18 33 -15 3 2 11 -2 18 -11 7 -8 18 -15 24 -15 6 0 39 -13
72 -30 52 -25 105 -49 124 -55 3 -1 19 -7 35 -14 73 -30 187 -73 192 -72 2 0
24 -9 50 -20 25 -11 52 -18 60 -15 7 3 13 1 13 -4 0 -6 9 -10 20 -10 11 0 20
-5 20 -12 0 -6 3 -9 6 -6 3 4 20 2 37 -4 93 -29 275 -80 297 -83 14 -2 57 -12
95 -23 39 -10 78 -18 88 -16 9 1 17 -1 17 -6 0 -4 21 -11 48 -14 26 -4 56 -10
67 -12 11 -3 29 -6 40 -8 11 -2 20 -4 20 -6 0 -1 11 -3 25 -5 29 -3 80 -12
130 -21 19 -4 44 -8 55 -9 11 -1 20 -3 20 -5 0 -1 25 -3 55 -6 30 -2 62 -7 70
-10 8 -4 29 -7 45 -8 17 -1 35 -4 40 -6 6 -3 29 -5 53 -5 23 0 42 -2 42 -5 0
-3 15 -6 33 -7 17 -1 52 -4 77 -7 25 -3 70 -8 100 -11 30 -3 78 -8 105 -11 28
-4 68 -8 90 -10 22 -1 40 -3 40 -4 0 -1 27 -3 60 -5 33 -2 60 -4 60 -5 0 -3
55 -8 123 -11 34 -2 62 -8 62 -14 0 -5 5 -3 10 5 5 8 10 11 10 5 0 -6 27 -10
63 -10 34 1 66 -1 71 -4 6 -2 31 -6 57 -7 26 -1 89 -5 141 -9 51 -4 127 -8
168 -9 41 0 79 -5 83 -11 6 -6 10 -6 14 3 2 6 10 9 16 5 43 -26 1345 -24 1672
3 28 2 67 4 87 4 20 0 39 4 42 8 2 4 36 7 75 7 39 0 71 4 71 10 0 13 40 -28
45 -46 8 -37 18 -59 26 -59 5 0 9 -6 9 -12 0 -7 35 -85 78 -173 43 -88 94
-192 113 -232 l34 -72 1597 -1 1598 0 -9 23 c-5 12 -27 58 -49 102 -23 44 -88
177 -145 295 -57 118 -134 276 -171 352 -36 75 -66 140 -66 145 0 4 -9 19 -20
33 -11 14 -20 33 -20 43 0 9 -4 17 -10 17 -5 0 -9 3 -8 8 1 4 -18 48 -42 97
-24 50 -43 93 -42 97 1 5 -3 8 -8 8 -6 0 -10 4 -10 10 0 5 -28 66 -61 135 -34
69 -60 127 -58 129 2 2 60 45 129 97 69 51 127 96 130 99 3 3 26 22 52 42 26
19 45 38 41 42 -3 3 -1 6 6 6 7 0 18 6 26 13 7 6 39 35 70 62 32 28 71 62 87
77 16 16 33 28 39 28 6 0 8 3 6 8 -2 4 15 23 39 42 23 19 43 41 43 48 1 6 5
12 11 12 5 0 38 29 72 64 113 115 199 206 195 206 -3 0 17 23 44 51 27 28 49
54 49 58 0 3 20 27 43 52 23 26 51 59 62 75 11 15 32 41 47 58 15 16 26 32 24
34 -3 2 3 12 12 22 27 29 37 43 67 88 15 23 32 42 36 42 5 0 8 3 7 8 -2 4 17
35 40 70 24 34 41 62 38 62 -3 0 6 12 19 26 14 15 25 33 25 40 0 8 5 14 10 14
6 0 10 6 10 14 0 8 6 21 13 28 19 20 48 68 42 68 -4 0 1 7 9 16 9 8 14 20 11
25 -4 5 -2 9 2 9 10 0 47 65 43 76 -1 4 3 10 8 13 12 8 85 150 85 167 0 7 4
11 9 8 4 -3 9 0 9 5 3 20 5 25 37 90 18 36 32 70 32 77 0 7 7 20 16 28 8 9 12
16 8 16 -3 0 -2 6 4 12 6 7 10 15 10 18 1 11 26 76 53 133 5 13 11 29 13 37 1
8 9 31 17 50 9 19 33 89 55 155 21 66 41 122 45 125 3 3 5 14 6 25 0 11 6 34
12 50 7 17 15 43 18 60 3 16 11 42 19 56 7 15 11 29 8 32 -3 3 -2 12 2 19 5 7
10 22 12 33 5 28 10 50 12 53 2 1 3 5 5 10 11 41 16 60 19 77 1 11 6 27 9 35
3 8 10 38 16 65 5 28 12 61 16 75 3 14 8 41 10 60 1 19 5 42 9 50 5 14 9 34
21 98 3 15 8 43 12 62 3 19 6 45 6 58 0 12 3 22 6 22 4 0 7 10 8 23 2 63 18
161 29 179 5 7 3 8 -5 3 -10 -5 -11 -3 -4 11 5 11 11 37 12 60 2 39 8 79 11
79 1 0 3 27 6 60 6 87 12 156 17 187 2 15 0 25 -4 22 -5 -3 -5 5 -1 18 5 13
10 48 11 78 6 114 7 126 15 139 6 10 5 12 -2 7 -7 -4 -12 -3 -12 3 0 5 5 13
10 16 8 5 8 11 1 19 -7 9 -7 16 1 24 9 9 9 12 -2 12 -11 0 -11 3 -2 12 8 8 8
17 1 31 -8 14 -8 18 0 13 12 -8 10 28 -2 40 -4 4 -7 12 -7 18 0 6 5 4 11 -4 8
-12 9 -10 7 10 -2 14 -7 28 -13 32 -6 5 -6 8 2 8 15 0 14 162 -1 172 -7 5 -7
8 2 8 16 0 16 52 0 69 -8 8 -8 11 -2 8 15 -9 14 85 -1 95 -6 5 -5 8 3 8 15 0
14 108 -2 129 -8 11 -8 13 0 8 15 -9 15 145 0 155 -8 5 -7 8 2 8 16 0 16 52 0
69 -8 8 -8 11 -2 8 15 -9 14 85 -1 95 -6 5 -5 8 3 8 15 0 14 108 -2 129 -8 11
-8 13 0 8 15 -9 15 145 0 155 -8 5 -7 8 2 8 16 0 16 52 0 69 -8 8 -8 11 -2 8
15 -9 14 85 -1 95 -6 5 -5 8 3 8 15 0 14 108 -2 129 -8 11 -8 13 0 8 15 -9 15
145 0 155 -8 5 -7 8 2 8 6 0 12 12 12 28 0 15 -6 34 -12 41 -8 8 -8 11 -2 8
15 -9 14 85 -1 95 -6 5 -5 8 3 8 15 0 14 108 -2 129 -8 11 -8 13 0 8 15 -9 15
145 0 155 -8 5 -7 8 2 8 16 0 16 52 0 69 -8 8 -8 11 -2 8 15 -9 14 85 -1 95
-6 5 -6 8 2 8 16 0 15 108 -1 129 -8 11 -8 13 1 8 16 -10 14 131 -1 152 -8 11
-8 13 1 8 16 -10 14 131 -1 152 -8 11 -8 13 1 8 16 -10 14 131 -1 152 -8 11
-8 13 1 8 16 -10 14 131 -1 152 -8 11 -8 13 1 8 16 -10 14 131 -1 152 -8 11
-8 13 1 8 16 -10 14 131 -1 152 -8 11 -8 13 1 8 16 -10 14 131 -1 152 -8 11
-8 13 1 8 16 -10 14 131 -1 152 -8 11 -8 13 1 8 16 -10 14 131 -1 152 -8 11
-8 13 1 8 16 -10 14 131 -1 152 -8 11 -8 13 1 8 16 -10 14 131 -1 152 -8 11
-8 13 1 8 16 -10 14 131 -1 152 -8 11 -8 13 1 8 16 -10 14 131 -1 152 -8 11
-8 13 1 8 16 -10 14 131 -1 152 -8 11 -8 13 1 8 16 -10 14 131 -1 152 -8 11
-8 13 1 7 17 -9 15 72 -1 93 -8 11 -8 13 1 7 16 -9 13 65 -2 76 -6 5 -5 8 3 8
15 0 14 108 -2 129 -8 11 -8 13 0 8 15 -9 15 145 0 155 -8 5 -7 8 2 8 16 0 16
52 0 69 -8 8 -8 11 -2 8 15 -9 14 85 -1 95 -6 5 -5 8 3 8 15 0 14 108 -2 129
-8 11 -8 13 0 8 15 -9 15 145 0 155 -8 5 -7 8 2 8 16 0 16 52 0 69 -8 8 -8 11
-2 8 15 -9 14 85 -1 95 -6 5 -5 8 3 8 15 0 14 108 -2 129 -8 11 -8 13 0 8 15
-9 15 145 0 155 -8 5 -7 8 2 8 16 0 16 52 0 69 -8 8 -8 11 -2 8 15 -9 14 85
-1 95 -6 5 -5 8 3 8 15 0 14 108 -2 129 -8 11 -8 13 0 8 15 -9 15 145 0 155
-8 5 -7 8 2 8 6 0 12 12 12 28 0 15 -6 34 -12 41 -8 8 -8 11 -2 8 15 -9 14 85
-1 95 -6 5 -5 8 3 8 15 0 14 108 -2 129 -8 11 -8 13 0 8 15 -9 15 145 0 155
-8 5 -7 8 2 8 16 0 16 52 0 69 -8 8 -8 11 -2 8 15 -9 14 85 -1 95 -6 5 -6 8 2
8 16 0 15 108 -1 129 -8 11 -8 13 1 8 16 -10 14 131 -1 152 -8 11 -8 13 1 8
16 -10 14 131 -1 152 -8 11 -8 13 1 8 16 -10 14 131 -1 152 -8 11 -8 13 1 8 8
-5 11 20 10 93 l-1 100 -2116 0 c-2109 0 -2116 0 -2116 -20 0 -11 4 -20 9 -20
5 0 4 -7 -3 -15 -9 -11 -9 -15 -1 -15 9 0 9 -5 1 -20 -8 -15 -8 -20 1 -20 8 0
8 -4 -1 -15 -10 -12 -10 -15 0 -15 10 0 10 -3 0 -15 -10 -12 -10 -15 0 -15 10
0 10 -3 0 -15 -10 -12 -10 -15 0 -15 10 0 10 -3 0 -15 -7 -8 -9 -15 -4 -15 5
0 9 -11 9 -25 0 -14 -4 -25 -8 -25 -4 0 -4 -8 1 -17 5 -10 6 -27 2 -38 -4 -11
-3 -26 2 -32 7 -9 7 -13 -2 -13 -10 0 -10 -3 0 -15 7 -8 8 -15 3 -15 -5 0 -10
-7 -10 -15 0 -8 5 -15 10 -15 5 0 4 -7 -3 -15 -7 -8 -9 -15 -4 -15 5 0 9 -11
9 -25 0 -14 -4 -25 -8 -25 -4 0 -3 -8 2 -18 6 -11 6 -24 0 -35 -7 -12 -6 -17
2 -17 8 0 8 -4 -1 -15 -10 -12 -10 -15 0 -15 10 0 10 -3 0 -15 -10 -12 -10
-15 0 -15 10 0 10 -3 0 -15 -10 -12 -10 -15 0 -15 10 0 10 -3 0 -15 -9 -11 -9
-15 -1 -15 9 0 9 -5 1 -20 -8 -15 -8 -20 1 -20 8 0 8 -4 -1 -15 -10 -12 -10
-15 0 -15 10 0 10 -3 0 -15 -10 -12 -10 -15 0 -15 10 0 10 -3 0 -15 -10 -12
-10 -15 0 -15 10 0 10 -3 0 -15 -7 -8 -9 -15 -4 -15 5 0 9 -11 9 -25 0 -14 -4
-25 -8 -25 -4 0 -4 -8 1 -17 5 -10 6 -27 2 -38 -4 -11 -3 -26 2 -32 7 -9 7
-13 -2 -13 -10 0 -10 -3 0 -15 7 -8 8 -15 3 -15 -5 0 -10 -7 -10 -15 0 -8 5
-15 10 -15 5 0 4 -7 -3 -15 -7 -8 -9 -15 -4 -15 5 0 9 -11 9 -25 0 -14 -4 -25
-8 -25 -4 0 -3 -8 2 -18 6 -11 6 -24 0 -35 -7 -12 -6 -17 2 -17 8 0 8 -4 -1
-15 -10 -12 -10 -15 0 -15 10 0 10 -3 0 -15 -10 -12 -10 -15 0 -15 10 0 10 -3
0 -15 -10 -12 -10 -15 0 -15 10 0 10 -3 0 -15 -9 -11 -9 -15 -1 -15 9 0 9 -5
1 -20 -8 -15 -8 -20 1 -20 8 0 8 -4 -1 -15 -10 -12 -10 -15 0 -15 10 0 10 -3
0 -15 -10 -12 -10 -15 0 -15 10 0 10 -3 0 -15 -10 -12 -10 -15 0 -15 10 0 10
-3 0 -15 -7 -8 -9 -15 -4 -15 5 0 9 -11 9 -25 0 -14 -4 -25 -8 -25 -4 0 -4 -8
1 -17 5 -10 6 -27 2 -38 -4 -11 -3 -26 2 -32 7 -9 7 -13 -2 -13 -10 0 -10 -3
0 -15 7 -8 8 -15 3 -15 -5 0 -10 -7 -10 -15 0 -8 5 -15 10 -15 5 0 4 -7 -3
-15 -7 -8 -9 -15 -4 -15 5 0 9 -11 9 -25 0 -14 -4 -25 -8 -25 -4 0 -3 -8 2
-18 6 -11 6 -24 0 -35 -7 -12 -6 -17 2 -17 8 0 8 -4 -1 -15 -10 -12 -10 -15 0
-15 10 0 10 -3 0 -15 -10 -12 -10 -15 0 -15 10 0 10 -3 0 -15 -10 -12 -10 -15
0 -15 10 0 10 -3 0 -15 -9 -11 -9 -15 -1 -15 9 0 9 -5 1 -20 -8 -15 -8 -20 1
-20 8 0 8 -4 -1 -15 -10 -12 -10 -15 0 -15 10 0 10 -3 0 -15 -10 -12 -10 -15
0 -15 10 0 10 -3 0 -15 -10 -12 -10 -15 0 -15 10 0 10 -3 0 -15 -7 -8 -9 -15
-4 -15 5 0 9 -11 9 -25 0 -14 -4 -25 -8 -25 -4 0 -4 -8 1 -17 5 -10 6 -27 2
-38 -4 -11 -3 -26 2 -32 7 -9 7 -13 -2 -13 -10 0 -10 -3 0 -15 7 -8 8 -15 3
-15 -5 0 -10 -7 -10 -15 0 -8 5 -15 10 -15 5 0 4 -7 -3 -15 -7 -8 -9 -15 -4
-15 5 0 9 -11 9 -25 0 -14 -4 -25 -8 -25 -4 0 -3 -8 2 -18 6 -11 6 -24 0 -35
-7 -12 -6 -17 2 -17 8 0 8 -4 -1 -15 -10 -12 -10 -15 0 -15 10 0 10 -3 0 -15
-10 -12 -10 -15 0 -15 10 0 10 -3 0 -15 -10 -12 -10 -15 0 -15 10 0 10 -3 0
-15 -9 -11 -9 -15 -1 -15 9 0 9 -5 1 -20 -8 -15 -8 -20 1 -20 8 0 8 -4 -1 -15
-10 -12 -10 -15 0 -15 10 0 10 -3 0 -15 -10 -12 -10 -15 0 -15 10 0 10 -3 0
-15 -10 -12 -10 -15 0 -15 10 0 10 -3 0 -15 -7 -8 -9 -15 -4 -15 5 0 9 -11 9
-25 0 -14 -4 -25 -8 -25 -4 0 -4 -8 1 -17 5 -10 6 -27 2 -38 -4 -11 -3 -26 2
-32 7 -9 7 -13 -2 -13 -10 0 -10 -3 0 -15 7 -8 8 -15 3 -15 -5 0 -10 -7 -10
-15 0 -8 5 -15 10 -15 5 0 4 -7 -3 -15 -7 -8 -9 -15 -4 -15 5 0 9 -11 9 -25 0
-14 -4 -25 -8 -25 -4 0 -3 -8 2 -18 6 -11 6 -24 0 -35 -7 -12 -6 -17 2 -17 8
0 8 -4 -1 -15 -10 -12 -10 -15 0 -15 10 0 10 -3 0 -15 -10 -12 -10 -15 0 -15
10 0 10 -3 0 -15 -10 -12 -10 -15 0 -15 10 0 10 -3 0 -15 -9 -11 -9 -15 -1
-15 9 0 9 -5 1 -20 -8 -15 -8 -20 1 -20 8 0 8 -4 -1 -15 -10 -12 -10 -15 0
-15 10 0 10 -3 0 -15 -10 -12 -10 -15 0 -15 10 0 10 -3 0 -15 -10 -12 -10 -15
0 -15 10 0 10 -3 0 -15 -7 -8 -9 -15 -4 -15 5 0 9 -11 9 -25 0 -14 -4 -25 -8
-25 -4 0 -4 -8 1 -17 5 -10 6 -27 2 -38 -4 -11 -3 -26 2 -32 7 -9 7 -13 -2
-13 -10 0 -10 -3 0 -15 7 -8 8 -15 3 -15 -5 0 -10 -7 -10 -15 0 -8 5 -15 10
-15 5 0 4 -7 -3 -15 -7 -8 -9 -15 -4 -15 5 0 9 -11 9 -25 0 -14 -4 -25 -8 -25
-4 0 -3 -8 2 -18 6 -11 6 -24 0 -35 -7 -12 -6 -17 2 -17 8 0 8 -4 -1 -15 -10
-12 -10 -15 0 -15 10 0 10 -3 0 -15 -10 -12 -10 -15 0 -15 10 0 10 -3 0 -15
-10 -12 -10 -15 0 -15 10 0 10 -3 0 -15 -9 -11 -9 -15 -1 -15 9 0 9 -5 1 -20
-8 -15 -8 -20 1 -20 8 0 8 -4 -1 -15 -10 -12 -10 -15 0 -15 10 0 10 -3 0 -15
-10 -12 -10 -15 0 -15 10 0 10 -3 0 -15 -10 -12 -10 -15 0 -15 10 0 10 -3 0
-15 -7 -8 -9 -15 -4 -15 5 0 9 -11 9 -25 0 -14 -4 -25 -8 -25 -4 0 -4 -8 1
-17 5 -10 6 -27 2 -38 -4 -11 -3 -26 2 -32 7 -9 7 -13 -2 -13 -10 0 -10 -3 0
-15 7 -8 8 -15 3 -15 -5 0 -10 -7 -10 -15 0 -8 5 -15 10 -15 5 0 4 -7 -3 -15
-7 -8 -9 -15 -4 -15 5 0 9 -11 9 -25 0 -14 -4 -25 -8 -25 -4 0 -3 -8 2 -18 6
-11 6 -24 0 -35 -7 -12 -6 -17 2 -17 8 0 8 -4 -1 -15 -10 -12 -10 -15 0 -15
10 0 10 -3 0 -15 -10 -12 -10 -15 0 -15 10 0 10 -3 0 -15 -10 -12 -10 -15 0
-15 10 0 10 -3 0 -15 -9 -11 -9 -15 -1 -15 9 0 9 -5 1 -20 -8 -15 -8 -20 1
-20 8 0 8 -4 -1 -15 -10 -12 -10 -15 0 -15 10 0 10 -3 0 -15 -10 -12 -10 -15
0 -15 10 0 10 -3 0 -15 -10 -12 -10 -15 0 -15 10 0 10 -3 0 -15 -7 -8 -9 -15
-4 -15 5 0 9 -11 9 -25 0 -14 -4 -25 -8 -25 -4 0 -4 -8 1 -17 5 -10 6 -27 2
-38 -4 -11 -3 -26 2 -32 7 -9 7 -13 -2 -13 -10 0 -10 -3 0 -15 7 -8 8 -15 3
-15 -5 0 -10 -7 -10 -15 0 -8 5 -15 10 -15 5 0 4 -7 -3 -15 -7 -8 -9 -15 -4
-15 5 0 9 -11 9 -25 0 -14 -4 -25 -8 -25 -4 0 -3 -8 2 -18 6 -11 6 -24 0 -35
-7 -12 -6 -17 2 -17 8 0 8 -4 -1 -15 -10 -12 -10 -15 0 -15 10 0 10 -3 0 -15
-10 -12 -10 -15 0 -15 10 0 10 -3 0 -15 -10 -12 -10 -15 0 -15 10 0 10 -3 0
-15 -9 -11 -9 -15 -1 -15 9 0 9 -5 1 -20 -8 -15 -8 -20 1 -20 8 0 8 -4 -1 -15
-10 -12 -10 -15 0 -15 10 0 10 -3 0 -15 -10 -12 -10 -15 0 -15 10 0 10 -3 0
-15 -10 -12 -10 -15 0 -15 10 0 10 -3 0 -15 -7 -8 -9 -15 -4 -15 5 0 9 -11 9
-25 0 -14 -4 -25 -8 -25 -4 0 -4 -8 1 -17 5 -10 6 -27 2 -38 -4 -11 -3 -26 2
-32 7 -9 7 -13 -2 -13 -10 0 -10 -3 0 -15 7 -8 8 -15 3 -15 -5 0 -10 -7 -10
-15 0 -8 5 -15 10 -15 5 0 4 -7 -3 -15 -7 -8 -9 -15 -4 -15 5 0 9 -11 9 -25 0
-14 -4 -25 -8 -25 -4 0 -3 -8 2 -18 6 -11 6 -24 0 -35 -7 -12 -6 -17 2 -17 8
0 8 -4 -1 -15 -10 -12 -10 -15 0 -15 10 0 10 -3 0 -15 -10 -12 -10 -15 0 -15
10 0 10 -3 0 -15 -10 -12 -10 -15 0 -15 10 0 10 -3 0 -15 -9 -11 -9 -15 -1
-15 9 0 9 -5 1 -20 -8 -15 -8 -20 1 -20 8 0 8 -4 -1 -15 -10 -12 -10 -15 0
-15 10 0 10 -3 0 -15 -10 -12 -10 -15 0 -15 10 0 10 -3 0 -15 -10 -12 -10 -15
0 -15 10 0 10 -3 0 -15 -7 -8 -9 -15 -4 -15 5 0 9 -11 9 -25 0 -14 -4 -25 -8
-25 -4 0 -4 -8 1 -17 5 -10 6 -27 2 -38 -4 -11 -3 -26 2 -32 7 -9 7 -13 -2
-13 -10 0 -10 -3 0 -15 7 -8 8 -15 3 -15 -5 0 -10 -7 -10 -15 0 -8 5 -15 10
-15 5 0 4 -7 -3 -15 -7 -8 -9 -15 -4 -15 5 0 9 -11 9 -25 0 -14 -4 -25 -8 -25
-4 0 -3 -8 2 -18 6 -11 6 -24 0 -35 -7 -12 -6 -17 2 -17 8 0 8 -4 -1 -15 -10
-12 -10 -15 0 -15 10 0 10 -3 0 -15 -10 -12 -10 -15 0 -15 10 0 10 -3 0 -15
-10 -12 -10 -15 0 -15 10 0 10 -3 0 -15 -9 -11 -9 -15 -1 -15 9 0 9 -5 1 -20
-8 -15 -8 -20 1 -20 8 0 8 -4 -1 -15 -10 -12 -10 -15 0 -15 10 0 10 -3 0 -15
-10 -12 -10 -15 0 -15 10 0 10 -3 0 -15 -10 -12 -10 -15 0 -15 10 0 10 -3 0
-15 -7 -8 -9 -15 -4 -15 5 0 9 -11 9 -25 0 -14 -4 -25 -8 -25 -4 0 -4 -8 1
-17 5 -10 6 -27 2 -38 -4 -11 -3 -26 2 -32 7 -9 7 -13 -2 -13 -10 0 -10 -3 0
-15 7 -8 8 -15 3 -15 -5 0 -10 -7 -10 -15 0 -8 5 -15 10 -15 5 0 4 -7 -3 -15
-7 -8 -9 -15 -4 -15 5 0 9 -11 9 -25 0 -14 -4 -25 -8 -25 -4 0 -3 -8 2 -18 6
-11 6 -24 0 -35 -7 -12 -6 -17 2 -17 8 0 8 -4 -1 -15 -10 -12 -10 -15 0 -15
10 0 10 -3 0 -15 -10 -12 -10 -15 0 -15 10 0 10 -3 0 -15 -10 -12 -10 -15 0
-15 10 0 10 -3 0 -15 -9 -11 -9 -15 -1 -15 9 0 9 -5 1 -20 -8 -15 -8 -20 1
-20 8 0 8 -4 -1 -15 -10 -12 -10 -15 0 -15 10 0 10 -3 0 -15 -10 -12 -10 -15
0 -15 10 0 10 -3 0 -15 -10 -12 -10 -15 0 -15 10 0 10 -3 0 -15 -7 -8 -9 -15
-4 -15 5 0 9 -11 9 -25 0 -14 -4 -25 -8 -25 -4 0 -4 -8 1 -17 5 -10 6 -27 2
-38 -4 -11 -3 -26 2 -32 7 -9 7 -13 -2 -13 -10 0 -10 -3 0 -15 7 -8 8 -15 3
-15 -5 0 -10 -7 -10 -15 0 -8 5 -15 10 -15 5 0 4 -7 -3 -15 -7 -8 -9 -15 -4
-15 5 0 9 -11 9 -25 0 -14 -4 -25 -8 -25 -4 0 -3 -8 2 -18 6 -11 6 -24 0 -35
-7 -12 -6 -17 2 -17 8 0 8 -4 -1 -15 -10 -12 -10 -15 0 -15 10 0 10 -3 0 -15
-10 -12 -10 -15 0 -15 10 0 10 -3 0 -15 -10 -12 -10 -15 0 -15 10 0 10 -3 0
-15 -9 -11 -9 -15 -1 -15 9 0 9 -5 1 -20 -8 -15 -8 -20 1 -20 8 0 8 -4 -1 -15
-10 -12 -10 -15 0 -15 10 0 10 -3 0 -15 -10 -12 -10 -15 0 -15 10 0 10 -3 0
-15 -10 -12 -10 -15 0 -15 10 0 10 -3 0 -15 -7 -8 -9 -15 -4 -15 5 0 9 -11 9
-25 0 -14 -4 -25 -8 -25 -4 0 -4 -8 1 -17 5 -10 6 -27 2 -38 -4 -11 -3 -26 2
-32 7 -9 7 -13 -2 -13 -10 0 -10 -3 0 -15 7 -8 8 -15 3 -15 -5 0 -10 -7 -10
-15 0 -8 5 -15 10 -15 5 0 4 -7 -3 -15 -7 -8 -9 -15 -4 -15 5 0 9 -11 9 -25 0
-14 -4 -25 -8 -25 -4 0 -4 -8 1 -17 5 -10 6 -27 2 -38 -4 -11 -3 -26 2 -32 7
-9 7 -13 -1 -13 -9 0 -9 -5 0 -21 8 -16 8 -20 -1 -14 -9 6 -9 2 -1 -14 8 -14
8 -21 1 -21 -7 0 -8 -6 -1 -19 6 -10 8 -21 5 -24 -11 -10 -11 -42 -1 -54 5 -7
6 -13 1 -13 -5 0 -10 -33 -11 -73 -3 -72 -10 -172 -13 -172 -1 0 -3 -18 -4
-40 -2 -22 -6 -51 -10 -64 -6 -18 -5 -22 5 -15 12 7 12 5 1 -9 -8 -9 -11 -21
-8 -26 4 -5 2 -12 -3 -16 -6 -3 -7 -13 -4 -22 4 -11 2 -14 -5 -9 -12 7 -56 96
-54 109 1 4 -2 7 -8 7 -6 0 -9 3 -8 8 2 10 -35 86 -45 90 -4 2 -5 7 -2 12 3 5
-2 16 -11 24 -8 9 -13 16 -10 16 3 0 -27 64 -66 143 -97 195 -132 271 -130
280 1 4 -3 7 -10 7 -6 0 -9 3 -5 6 3 3 -4 23 -17 43 -12 20 -31 57 -41 84 -10
26 -22 47 -26 47 -5 0 -9 5 -9 11 0 7 -22 58 -50 115 -27 57 -50 108 -50 114
0 5 -5 10 -10 10 -6 0 -9 3 -8 8 1 4 -37 87 -85 185 -48 98 -87 182 -87 188 0
5 -5 9 -10 9 -6 0 -9 3 -9 8 3 13 -34 92 -43 92 -4 0 -8 6 -8 14 0 8 -23 60
-50 115 -28 55 -50 105 -50 111 0 5 -4 10 -10 10 -5 0 -10 7 -10 15 0 9 -8 28
-17 43 -9 15 -17 28 -18 29 -1 1 -39 -16 -86 -39 -112 -54 -397 -192 -594
-288 -414 -201 -522 -253 -680 -330 -93 -45 -228 -111 -300 -145 -71 -34 -215
-104 -320 -155 -104 -51 -199 -96 -210 -101 -11 -5 -27 -13 -35 -19 -8 -5 -92
-46 -187 -92 l-172 -83 69 -140 c38 -77 79 -164 92 -192 12 -29 25 -53 30 -53
4 0 8 -5 8 -12 0 -6 27 -67 60 -135 33 -67 60 -127 60 -133 0 -5 5 -10 10 -10
6 0 9 -3 8 -7 -1 -5 31 -75 72 -158 40 -82 74 -152 75 -155 7 -22 21 -48 34
-64 9 -10 16 -21 15 -25 -2 -16 9 -41 19 -41 6 0 8 -2 5 -5 -3 -3 19 -55 48
-116 30 -60 54 -114 54 -119 0 -6 5 -10 10 -10 6 0 10 -6 10 -13 0 -8 22 -57
49 -110 26 -53 46 -99 43 -102 -3 -3 0 -5 6 -5 7 0 12 -4 12 -10 0 -9 92 -202
223 -467 30 -62 52 -113 49 -113 -4 0 -2 -4 3 -8 11 -8 56 -100 52 -106 -1 -2
6 -12 15 -22 9 -11 17 -22 17 -27 1 -4 13 -31 27 -60 51 -104 58 -95 -64 -89
-59 2 -131 5 -159 6 -29 0 -53 3 -53 6 0 4 -10 6 -22 7 -79 4 -118 8 -118 13
0 3 -10 6 -22 7 -13 0 -43 4 -68 8 -25 4 -51 7 -57 8 -7 0 -13 3 -13 7 0 4
-10 6 -22 5 -13 -1 -27 1 -33 5 -5 4 -23 10 -40 13 -58 10 -120 28 -129 37 -5
5 -14 6 -21 4 -7 -3 -16 -1 -20 5 -3 6 -17 11 -31 11 -13 0 -24 4 -24 9 0 7
-29 16 -65 21 -2 1 -54 25 -115 55 -61 30 -115 55 -120 55 -6 0 -10 5 -10 10
0 6 -7 10 -15 10 -8 0 -15 5 -15 10 0 6 -6 10 -14 10 -8 0 -22 7 -30 16 -9 8
-16 13 -16 9 0 -3 -10 3 -22 15 -12 11 -34 26 -50 32 -15 7 -28 16 -28 20 0 3
-15 15 -33 27 -63 39 -287 251 -287 272 0 6 -5 7 -10 4 -6 -3 -10 0 -10 9 0 8
-3 16 -7 18 -11 4 -93 105 -93 113 0 6 -18 31 -61 83 -5 6 -6 12 -2 12 4 0 3
4 -3 8 -6 4 -21 26 -33 49 -11 23 -25 45 -31 48 -6 4 -8 11 -5 16 4 5 1 9 -6
9 -7 0 -9 3 -6 6 4 4 -2 19 -12 33 -10 14 -24 43 -32 63 -7 21 -16 38 -20 38
-5 0 -6 9 -4 20 2 11 0 18 -4 16 -4 -3 -16 22 -27 54 -10 33 -22 60 -25 60 -3
0 -6 6 -6 13 0 6 -12 51 -27 99 -26 84 -35 116 -41 148 -1 8 -5 22 -8 30 -3 8
-9 38 -13 65 -4 28 -9 57 -11 65 -12 64 -16 89 -17 117 0 18 -3 33 -6 33 -3 0
-5 25 -5 56 0 31 -3 58 -6 59 -5 4 -9 56 -11 175 -1 30 -6 58 -12 62 -8 6 -8
8 1 8 10 0 12 88 3 125 -1 6 -1 12 0 15 6 14 5 88 -1 107 -5 12 -4 25 0 28 8
4 8 59 1 90 -1 6 -1 12 0 15 6 14 5 87 -1 101 -5 9 -5 19 -1 23 9 10 10 78 1
97 -5 9 -5 19 -1 23 9 10 10 77 1 103 -5 12 -4 25 0 28 8 4 8 59 1 90 -1 6 -1
12 0 15 6 14 5 87 -1 101 -5 9 -5 19 -1 23 9 10 10 78 1 97 -5 9 -5 19 -1 23
9 10 10 77 1 103 -5 12 -4 25 0 28 8 4 8 59 1 90 -1 6 -1 12 0 15 6 14 5 87
-1 101 -5 9 -5 19 -1 23 9 10 10 78 1 97 -5 9 -5 19 -1 23 9 10 10 77 1 103
-5 12 -4 25 0 28 8 4 8 59 1 90 -1 6 -1 12 0 15 6 14 5 87 -1 101 -5 9 -5 19
-1 23 9 10 10 78 1 97 -5 9 -5 19 -1 23 9 10 10 77 1 103 -5 12 -4 25 0 28 8
4 8 59 1 90 -1 6 -1 12 0 15 6 14 5 87 -1 101 -5 9 -5 19 -1 23 9 10 10 78 1
97 -5 9 -5 19 -1 23 9 10 10 77 1 103 -5 12 -4 25 0 28 8 4 8 59 1 90 -1 6 -1
12 0 15 6 14 5 87 -1 101 -5 9 -5 19 -1 23 9 10 10 78 1 97 -5 9 -5 19 -1 23
9 10 10 77 1 103 -5 12 -4 25 0 28 8 4 8 59 1 90 -1 6 -1 12 0 15 6 14 5 87
-1 101 -5 9 -5 19 -1 23 9 10 10 78 1 97 -5 9 -5 19 -1 23 9 10 10 77 1 103
-5 12 -4 25 0 28 8 4 8 59 1 90 -1 6 -1 12 0 15 6 16 5 92 -2 96 -5 3 -5 11
-1 17 10 16 11 47 1 74 -4 12 -3 25 1 28 8 4 8 59 1 90 -1 6 -1 12 0 15 6 14
5 87 -1 101 -5 9 -5 19 -1 23 9 10 10 78 1 97 -5 9 -5 19 -1 23 9 10 10 77 1
103 -5 12 -4 25 0 28 8 4 8 59 1 90 -1 6 -1 12 0 15 6 14 5 87 -1 101 -5 9 -5
19 -1 23 9 10 10 78 1 97 -5 9 -5 19 -1 23 9 10 10 77 1 103 -5 12 -4 25 0 28
8 4 8 59 1 90 -1 6 -1 12 0 15 6 14 5 87 -1 101 -5 9 -5 19 -1 23 9 10 10 78
1 97 -5 9 -5 19 -1 23 9 10 10 77 1 103 -5 12 -4 25 0 28 8 4 8 59 1 90 -1 6
-1 12 0 15 6 14 5 87 -1 101 -5 9 -5 19 -1 23 9 10 10 78 1 97 -5 9 -5 19 -1
23 9 10 10 77 1 103 -5 12 -4 25 0 28 8 4 8 59 1 90 -1 6 -1 12 0 15 6 14 5
87 -1 101 -5 9 -5 19 -1 23 9 10 10 78 1 97 -5 9 -5 19 -1 23 9 10 10 77 1
103 -5 12 -4 25 0 28 8 4 8 59 1 90 -1 6 -1 12 0 15 6 14 5 87 -1 101 -5 9 -5
19 -1 23 9 10 10 78 1 97 -5 9 -5 19 -1 23 9 10 10 77 1 103 -5 12 -4 25 0 28
8 4 8 59 1 90 -1 6 -1 12 0 15 6 14 5 87 -1 101 -5 9 -5 19 -1 23 9 10 10 78
1 97 -5 9 -5 19 -1 23 9 10 10 77 1 103 -5 12 -4 25 0 28 8 4 8 59 1 90 -1 6
-1 12 0 15 6 14 5 87 -1 101 -5 9 -5 19 -1 23 9 10 10 78 1 97 -5 9 -5 19 -1
23 9 10 10 77 1 103 -5 12 -4 25 0 28 8 4 8 59 1 90 -1 6 -1 12 0 15 6 14 5
87 -1 101 -5 9 -5 19 -1 23 9 10 10 78 1 97 -5 9 -5 19 -1 23 9 10 10 77 1
103 -5 12 -4 25 0 28 7 4 8 60 1 75 -1 3 -1 10 0 15 1 6 3 22 5 38 l3 27
-2118 0 c-1869 0 -2117 -2 -2117 -15z"/>
</g>
</svg>
